Coordinates
version=1
nRows=5
nColumns=46
inDegrees=yes

Units are S.I. units (second, meters, Newtons, ...)
Angles are in degrees.

endheader
time	pelvis_tilt	pelvis_list	pelvis_rotation	pelvis_tx	pelvis_ty	pelvis_tz	bb_angle	bb_tx	bb_ty	bb_tz	hip_flexion_r	hip_adduction_r	hip_rotation_r	knee_angle_r	knee_angle_r_beta	ankle_angle_r	subtalar_angle_r	mtp_angle_r	crank_angle_r	hip_flexion_l	hip_adduction_l	hip_rotation_l	knee_angle_l	knee_angle_l_beta	ankle_angle_l	subtalar_angle_l	mtp_angle_l	crank_angle_l	lumbar_extension	lumbar_bending	lumbar_rotation	arm_flex_r	arm_add_r	arm_rot_r	elbow_flex_r	pro_sup_r	wrist_flex_r	wrist_dev_r	arm_flex_l	arm_add_l	arm_rot_l	elbow_flex_l	pro_sup_l	wrist_flex_l	wrist_dev_l
      7.50500000	    -22.87729927	      4.30549983	     12.42633149	      0.39236079	      1.19860778	     -0.23421764	      0.00000000	      0.50000000	      0.00000000	      0.25000000	     31.13411443	    -10.76410070	     -0.68089384	     56.11663204	      0.97941999	    -24.18622281	     -7.10377776	      0.00000000	      0.00000000	     63.44423113	      8.42828987	      3.88387152	     80.29499252	      1.40141199	     10.91999972	     -7.24890042	      0.00000000	      0.00000000	    -61.54220866	      0.84916626	     -1.36896268	     33.90692443	    -21.05290064	      5.21985827	     92.09674314	     49.31891124	      0.00000000	      0.00000000	     56.35139643	     -9.36739675	     35.88027330	     75.41064887	     52.83790219	      0.00000000	      0.00000000
      7.51000000	    -22.34706009	      4.31270756	     12.80678472	      0.39108000	      1.19956571	     -0.23503683	      0.00000000	      0.50000000	      0.00000000	      0.25000000	     31.74544895	    -10.99121554	     -0.96777797	     58.49258614	      1.02088822	    -25.20227437	     -7.80779229	      0.00000000	      0.00000000	     61.64781720	      8.61789239	      4.05362727	     77.74578077	      1.35691985	     10.80412456	     -7.27463697	      0.00000000	      0.00000000	    -62.05479354	      1.37652181	     -1.61538382	     34.69206896	    -21.33529998	      5.53048982	     91.80345718	     49.31149442	      0.00000000	      0.00000000	     56.58887169	     -9.18606269	     35.56952720	     75.39626643	     52.82086751	      0.00000000	      0.00000000
      7.51500000	    -21.93711145	      3.70396222	     12.97222589	      0.38992157	      1.19990718	     -0.23537474	      0.00000000	      0.50000000	      0.00000000	      0.25000000	     32.52482398	    -10.45013875	     -1.11580041	     60.67114949	      1.05891132	    -25.73824232	     -7.74411937	      0.00000000	      0.00000000	     60.18530891	      8.13193022	      4.53453929	     75.44718103	      1.31680172	     10.61180460	     -7.12203614	      0.00000000	      0.00000000	    -62.19383824	      2.01789382	     -1.20088879	     34.81586653	    -21.27889688	      5.69786997	     91.68350680	     49.31106496	      0.00000000	      0.00000000	     56.50572857	     -9.28732168	     35.47272736	     75.35966817	     52.81002004	      0.00000000	      0.00000000
      7.52000000	    -21.29854903	      3.71458498	     13.17651805	      0.38879856	      1.20103455	     -0.23592755	      0.00000000	      0.50000000	      0.00000000	      0.25000000	     33.02365840	    -10.58665031	     -1.14412329	     62.88996142	      1.09763689	    -26.52752685	     -8.03232232	      0.00000000	      0.00000000	     58.26057354	      8.09684448	      4.63083630	     72.89293169	      1.27222166	     10.01914905	     -6.94631646	      0.00000000	      0.00000000	    -62.76673980	      2.39052622	     -1.62357794	     35.91655010	    -21.49992809	      6.55860569	     91.04373558	     49.31101422	      0.00000000	      0.00000000	     56.64323649	     -9.32548061	     34.88560169	     75.26991785	     52.76783826	      0.00000000	      0.00000000
      7.52500000	    -20.91084427	      3.16582599	     13.34016586	      0.38755169	      1.20136814	     -0.23633246	      0.00000000	      0.50000000	      0.00000000	      0.25000000	     33.83805900	    -10.13746209	     -1.27044081	     65.00285568	      1.13451385	    -27.01759079	     -7.95061430	      0.00000000	      0.00000000	     56.84890938	      7.61284700	      5.03044984	     70.63917532	      1.23288619	      9.34050527	     -6.73037524	      0.00000000	      0.00000000	    -62.79117327	      3.25385041	     -2.67452268	     38.16009821	    -20.75073219	      9.47160413	     88.66891508	     49.35941549	      0.00000000	      0.00000000	     55.66010927	    -10.77754248	     33.32767921	     76.32802659	     53.01771849	      0.00000000	      0.00000000
